<?xml version="1.0" encoding="UTF-8"?>
<svg version="1.1" xmlns="http://www.w3.org/2000/svg" width="500" height="500">
<path d="M0 0 C165 0 330 0 500 0 C500 165 500 330 500 500 C335 500 170 500 0 500 C0 335 0 170 0 0 Z " fill="#000000" transform="translate(0,0)"/>
<path d="M0 0 C7.5872654 3.75127954 14.18872925 9.37243975 20.84375 14.55078125 C23.73108495 16.79132459 26.62016114 19.01968858 29.5625 21.1875 C30.32691406 21.75855469 31.09132812 22.32960938 31.87890625 22.91796875 C33.89211878 24.1764331 33.89211878 24.1764331 35.93359375 23.85546875 C39.54339711 22.3610511 42.91906976 20.44259648 46.34375 18.5703125 C59.25912495 13.02332454 72.11158313 13.54262044 85.9375 13.56640625 C88.26814932 13.5618378 90.5987973 13.55653027 92.92944336 13.55052185 C97.79774472 13.54162065 102.66588177 13.54398043 107.53417969 13.55395508 C113.74770659 13.56545068 119.96066566 13.5452082 126.17411804 13.51603794 C130.98192904 13.49762376 135.78960519 13.49797866 140.59744263 13.50367546 C142.88738808 13.50382798 145.17734307 13.49784137 147.46725464 13.48538399 C164.23851002 13.40697374 175.70428942 15.03666541 190.1875 23.8046875 C192.8479569 25.32397554 192.8479569 25.32397554 194.94970703 24.22900391 C196.89908288 23.06049259 198.76576938 21.8490911 200.6171875 20.53125 C201.30031006 20.04696533 201.98343262 19.56268066 202.68725586 19.0637207 C203.40921143 18.54769287 204.13116699 18.03166504 204.875 17.5 C205.62080322 16.97043701 206.36660645 16.44087402 207.13500977 15.89526367 C210.81645961 13.27895131 214.4892863 10.65065973 218.16015625 8.01953125 C219.11849365 7.33310547 219.11849365 7.33310547 220.09619141 6.6328125 C221.30146993 5.76856611 222.50561814 4.90274068 223.70849609 4.03515625 C228.5558678 0.55305745 230.83239794 -0.38093236 236.734375 0.37109375 C240.79434861 1.49808643 241.91445944 3.36712289 244 7 C244.67462509 11.19766724 244.43641398 13.22518464 242.34765625 16.93359375 C239.79103755 20.27293765 237.34706794 22.20264295 233.875 24.5625 C232.62957893 25.42226607 231.3848215 26.28299402 230.140625 27.14453125 C229.47611328 27.60037598 228.81160156 28.0562207 228.12695312 28.52587891 C224.25268745 31.21100473 220.44263056 33.98524928 216.625 36.75 C215.88878418 37.28052979 215.15256836 37.81105957 214.39404297 38.35766602 C210.12130324 41.44118071 205.9024814 44.57863173 201.73974609 47.80957031 C197.96075166 50.39536555 194.44046443 50.42311802 190 50 C187.12956347 48.6874929 184.59504451 46.9747002 182 45.1875 C180.64902727 44.28038133 179.29488334 43.37796642 177.9375 42.48046875 C177.34839844 42.07723389 176.75929688 41.67399902 176.15234375 41.25854492 C169.79906602 37.54357819 164.97154099 36.54066375 157.69921875 36.56640625 C156.82280228 36.5611644 155.9463858 36.55592255 155.04341125 36.55052185 C153.19700169 36.54412657 151.35055124 36.54540618 149.50415039 36.55395508 C146.70578945 36.56244451 143.90948687 36.53370284 141.11132812 36.50195312 C122.47078554 36.41758227 114.52096591 41.54293454 101.28466797 54.60180664 C99.6846049 56.20202464 98.08718405 57.80488822 96.4921875 59.41015625 C95.64069122 60.26306747 94.78919495 61.1159787 93.91189575 61.99473572 C91.23054337 64.68162229 88.55271567 67.37198962 85.875 70.0625 C84.04190009 71.90062344 82.20856878 73.73851614 80.375 75.57617188 C75.9139921 80.04812131 71.45586145 84.52292291 67 89 C73.30594623 94.15562505 79.44160512 96.62526344 87.68359375 96.28125 C101.72772682 94.57606015 110.45013349 85.9815558 119.9375 76.1875 C121.79718614 74.28158294 123.66183126 72.38070087 125.52734375 70.48046875 C126.33937256 69.64410889 127.15140137 68.80774902 127.98803711 67.94604492 C130.68213549 65.34021333 132.45845894 64.75550809 136.125 64.5 C139.96798386 64.60355398 141.77895984 65.21285724 144.58764648 67.82910156 C145.27857391 68.46819458 145.96950134 69.1072876 146.68136597 69.76574707 C147.4465152 70.50305054 148.21166443 71.240354 149 72 C149.85433624 72.82141479 150.70867249 73.64282959 151.58889771 74.48913574 C154.56832623 77.38631779 157.52452049 80.30542785 160.47265625 83.234375 C161.00821074 83.76585396 161.54376522 84.29733292 162.09554863 84.8449173 C164.9270644 87.65572135 167.75539682 90.46968546 170.58129883 93.28613281 C173.4729603 96.16672602 176.37611948 99.03543658 179.28200626 101.90166855 C181.54091317 104.13423879 183.79070591 106.37583333 186.03826714 108.61981964 C187.10363224 109.68036744 188.17232321 110.73758673 189.24461555 111.79113007 C195.86480951 118.30264397 201.39109979 124.89131613 206 133 C206.68102783 132.31373535 207.36205566 131.6274707 208.0637207 130.92041016 C210.59388463 128.37213023 213.1273696 125.82717421 215.66186523 123.28320312 C216.75782518 122.18221807 217.85288544 121.08033668 218.94702148 119.97753906 C220.52090908 118.39150617 222.09801628 116.80873713 223.67578125 115.2265625 C224.16339432 114.73378815 224.65100739 114.24101379 225.15339661 113.73330688 C230.72628082 108.15950811 230.72628082 108.15950811 234.12109375 107.734375 C234.88550781 107.73953125 235.64992188 107.7446875 236.4375 107.75 C237.19933594 107.74484375 237.96117187 107.7396875 238.74609375 107.734375 C241.26236082 108.03091947 242.85016572 108.67419214 245 110 C247.09383612 112.69207502 247.93418961 114.55813021 248.4375 117.9375 C247.53508139 124.25443027 242.68772343 128.60780407 238.3203125 132.9543457 C237.76354324 133.51622589 237.20677399 134.07810608 236.63313293 134.65701294 C234.80220191 136.50177111 232.9640099 138.33907912 231.125 140.17578125 C229.83645193 141.46822244 228.54812558 142.76088471 227.26000977 144.05375671 C224.56003683 146.76117895 221.85623825 149.46471026 219.14990234 152.16577148 C215.71002872 155.59987843 212.28159521 159.04515357 208.85626221 162.49375629 C206.19668546 165.16819242 203.53007712 167.83553352 200.86151123 170.50099754 C199.59630979 171.76670695 198.33342099 173.03473304 197.07305908 174.30526161 C180.48659776 191.00896293 160.53533893 206.83742081 135.74511719 207.19287109 C134.719245 207.20893402 133.6933728 207.22499695 132.63641357 207.24154663 C127.91940304 207.28659165 123.20252802 207.32712641 118.48535156 207.35009766 C116.016505 207.36655663 113.54770406 207.39371091 111.07910156 207.43212891 C78.18928077 207.94036989 58.00990151 198.14806245 34.45461273 175.51512527 C30.78048269 171.93782702 27.15064994 168.31616586 23.5234375 164.69140625 C22.37959539 163.55078873 21.23568322 162.41024146 20.09170532 161.26976013 C17.72197994 158.90595503 15.35426055 156.54016204 12.98779297 154.1730957 C9.95781543 151.14301545 6.92094596 148.11994142 3.88239098 145.09846592 C1.53012854 142.75730598 -0.81759119 140.4116315 -3.16404343 138.06464958 C-4.2827759 136.94709433 -5.40312379 135.83115369 -6.52513504 134.71689034 C-8.0848584 133.16695703 -9.63812811 131.61082595 -11.18994141 130.05297852 C-12.51464951 128.73040794 -12.51464951 128.73040794 -13.86611938 127.38111877 C-16.57751037 124.35557745 -17.79270377 122.16604131 -18.5 118.1875 C-17.78762776 113.646127 -15.29145042 111.09532772 -12 108 C-9.13391871 106.56695936 -7.18699217 106.69355845 -4 107 C0.6954801 109.74249595 4.32039322 113.06579391 8.07446289 116.92675781 C8.64942505 117.50945938 9.22438721 118.09216095 9.81677246 118.69252014 C11.05800915 119.95133072 12.29700993 121.21234917 13.53398323 122.47534943 C15.5022155 124.48328046 17.47811173 126.48336834 19.45640564 128.48138428 C25.0781774 134.16091345 30.69029948 139.84982638 36.28686523 145.55419922 C39.71930329 149.0516463 43.16429943 152.53631766 46.61712456 156.01363373 C47.92020945 157.33083789 49.21863153 158.65267407 50.51194954 159.9794693 C63.0953226 172.88379494 77.2600813 184.26963705 96.23828125 185.09765625 C96.92277344 185.08605469 97.60726562 185.07445312 98.3125 185.0625 C99.529375 185.041875 100.74625 185.02125 102 185 C101.50628906 184.51789063 101.01257813 184.03578125 100.50390625 183.5390625 C99.86324219 182.90742188 99.22257812 182.27578125 98.5625 181.625 C97.92441406 180.99851562 97.28632813 180.37203125 96.62890625 179.7265625 C93.59562249 176.5114272 93.53551171 173.60619483 93.59765625 169.33203125 C94.18393079 165.9339157 95.55169227 164.22998252 98.1640625 162.046875 C100.69309593 160.60478785 103.04561795 160.11982728 105.94555664 160.35644531 C111.70732946 162.1613215 116.15774402 168.0907141 120.04296875 172.47265625 C127.09286491 180.98053016 127.09286491 180.98053016 136.5703125 185.83203125 C140.06614249 185.33924558 142.7762189 184.4327916 146 183 C147.1446875 182.566875 148.289375 182.13375 149.46875 181.6875 C152.36664042 180.5500103 155.18575169 179.32852803 158 178 C154.18044514 173.52832602 150.32774713 169.09232515 146.41796875 164.69921875 C143.85666219 161.62988444 143.61498548 159.02349486 143.63671875 155.0390625 C144.24034603 151.650961 146.4155948 150.08013101 149 148 C149.33 147.67 149.66 147.34 150 147 C156.30699567 146.46550884 158.80717556 147.07755127 164 151 C166.04186384 152.83975796 167.96603152 154.77359514 169.875 156.75 C170.37257813 157.25660156 170.87015625 157.76320312 171.3828125 158.28515625 C172.59323202 159.51885307 173.79729853 160.75877784 175 162 C178.74982583 160.29410439 180.60478508 158.38633833 183 155 C184.02158773 151.93523682 184.30150133 149.53113526 184.4375 146.3125 C184.49808594 145.31863281 184.55867187 144.32476562 184.62109375 143.30078125 C183.03970999 134.89657196 174.60051404 128.26680298 168.8046875 122.43359375 C167.93482208 121.55469986 167.06495667 120.67580597 166.16873169 119.77027893 C164.34094576 117.9280636 162.51040323 116.08857958 160.67724609 114.25170898 C158.79890759 112.36535178 156.92617677 110.47514304 155.06201172 108.57495117 C152.36345899 105.82789737 149.64893508 103.09764545 146.9296875 100.37109375 C145.67646194 99.08856972 145.67646194 99.08856972 144.3979187 97.78013611 C143.6167569 97.00505203 142.83559509 96.22996796 142.03076172 95.43139648 C141.34714569 94.74270981 140.66352966 94.05402313 139.959198 93.34446716 C138.09712668 91.75937319 138.09712668 91.75937319 135.84664917 92.20031738 C133.61430349 93.16702404 132.49940467 94.27688474 130.890625 96.09765625 C130.30885498 96.73098877 129.72708496 97.36432129 129.12768555 98.0168457 C128.1982312 99.02944458 128.1982312 99.02944458 127.25 100.0625 C115.94536703 111.85845669 103.21537267 117.68528941 86.859375 118.32763672 C71.9331628 118.64403588 58.8621188 113.34487505 48 103 C44.64515964 98.46643195 42.85510171 94.94999181 42.625 89.3125 C42.57601562 88.50425781 42.52703125 87.69601563 42.4765625 86.86328125 C44.00881813 78.48161423 51.20243809 72.39571585 57.01953125 66.6875 C57.87810226 65.83317383 58.73667328 64.97884766 59.6212616 64.09863281 C62.344668 61.39191712 65.0783565 58.69586501 67.8125 56 C69.66931074 54.15824842 71.52543795 52.31580745 73.38085938 50.47265625 C77.912694 45.97376342 82.45299977 41.48356175 87 37 C82.85440907 36.88272727 78.70925138 36.81239067 74.5625 36.75 C73.39783203 36.71648437 72.23316406 36.68296875 71.03320312 36.6484375 C61.85060543 36.54497161 54.94988904 38.19302524 47.75 44.0625 C47.09644531 44.57167969 46.44289063 45.08085937 45.76953125 45.60546875 C45.18558594 46.06566406 44.60164063 46.52585938 44 47 C39.81219975 50.06424408 37.19017039 50.571443 32 50 C28.97061196 48.43770722 26.36917441 46.40505906 23.6875 44.3125 C22.10063536 43.11929286 20.51338414 41.9265997 18.92578125 40.734375 C18.1157666 40.11755859 17.30575195 39.50074219 16.47119141 38.86523438 C12.49001084 35.86027295 8.430064 32.96650944 4.375 30.0625 C2.26248317 28.54344247 0.15260974 27.02124544 -1.95019531 25.48876953 C-3.36898402 24.45830579 -4.79603072 23.43915225 -6.22949219 22.42919922 C-6.94524414 21.91502441 -7.66099609 21.40084961 -8.3984375 20.87109375 C-9.36402588 20.18744751 -9.36402588 20.18744751 -10.34912109 19.48999023 C-13.27053763 16.85328436 -13.9372415 14.48413697 -14.4375 10.625 C-13.85694294 5.8146701 -12.38607407 4.38607407 -9 1 C-5.89709727 -0.55145136 -3.3335879 -0.70876283 0 0 Z " fill="#AE95F8" transform="translate(128,90)"/>
<path d="M0 0 C2.76598191 1.91491055 5.06502424 3.70086162 7.25 6.25 C7.58 3.94 7.91 1.63 8.25 -0.75 C12.21 -0.75 16.17 -0.75 20.25 -0.75 C20.25 18.72 20.25 38.19 20.25 58.25 C16.29 58.25 12.33 58.25 8.25 58.25 C7.755 54.785 7.755 54.785 7.25 51.25 C6.73050781 51.65992188 6.21101563 52.06984375 5.67578125 52.4921875 C4.62970703 53.30042969 4.62970703 53.30042969 3.5625 54.125 C2.87800781 54.65867187 2.19351563 55.19234375 1.48828125 55.7421875 C-4.85115913 60.01273547 -11.31523327 60.09623361 -18.75 59.25 C-28.17729991 56.17117871 -34.2727265 49.93748157 -38.75 41.25 C-41.92502311 33.22947123 -42.12629988 24.02291726 -39.1875 15.875 C-35.82669209 8.71859436 -30.6500614 2.70202854 -23.5390625 -0.90234375 C-16.33264583 -3.09252921 -6.89172364 -3.24544584 0 0 Z " fill="#FAFAFA" transform="translate(247.75,330.75)"/>
<path d="M0 0 C4.73080777 3.08373206 7.93014968 6.63719691 10.75 11.5 C11.678125 13.046875 11.678125 13.046875 12.625 14.625 C13.75 18.5 13.75 18.5 13.75 32.5 C-1.1 32.5 -15.95 32.5 -31.25 32.5 C-29.19504554 40.29293765 -29.19504554 40.29293765 -24.3203125 45.6875 C-19.08498991 47.74211717 -12.39039933 47.70022683 -7.14453125 45.6953125 C-4.46592952 43.98894399 -3.01213852 42.14320778 -1.25 39.5 C1.7890625 39.20703125 1.7890625 39.20703125 5.375 39.3125 C6.56351562 39.33957031 7.75203125 39.36664063 8.9765625 39.39453125 C9.89179688 39.42933594 10.80703125 39.46414063 11.75 39.5 C10.96132238 45.38947577 7.88336044 48.45151349 3.75 52.5 C-4.52527983 58.78921267 -12.16678115 59.3341092 -22.25 58.5 C-30.63808717 56.47277778 -37.7078879 50.54670663 -42.25 43.3125 C-46.12243143 34.73783041 -45.73756704 23.2114386 -43.3984375 14.23046875 C-39.99138635 6.68628407 -33.83959861 1.20094306 -26.20849609 -1.90014648 C-18.09036834 -4.38658875 -7.52621618 -3.79412272 0 0 Z " fill="#F8F8F8" transform="translate(405.25,331.5)"/>
<path d="M0 0 C4.29 0 8.58 0 13 0 C13.33 8.25 13.66 16.5 14 25 C16.97 23.35 19.94 21.7 23 20 C29.75938766 18.90457969 37.59800111 18.55928582 43.6875 22.125 C49.46993263 26.67197896 53.08623965 31.8806853 55 39 C55.36898752 42.26072715 55.35229707 45.47191266 55.29296875 48.75 C55.28872391 49.64871826 55.28447906 50.54743652 55.28010559 51.47338867 C55.26344584 54.31591012 55.22581832 57.15769645 55.1875 60 C55.17243671 61.93879177 55.15875119 63.87759477 55.14648438 65.81640625 C55.1135841 70.54454979 55.06189115 75.27215069 55 80 C50.71 80 46.42 80 42 80 C41.98541748 78.84999512 41.97083496 77.69999023 41.95581055 76.51513672 C41.89766238 72.23211195 41.82043076 67.94960384 41.73754883 63.66699219 C41.70437704 61.81649181 41.67632113 59.96589214 41.65356445 58.11523438 C41.6198755 55.44878997 41.5675534 52.7832491 41.51171875 50.1171875 C41.50532883 49.29507782 41.4989389 48.47296814 41.49235535 47.62594604 C41.3463001 41.86792888 40.36911239 37.45205724 36.21484375 33.15234375 C33.23416889 31.60155171 30.91119658 31.56637133 27.5625 31.5625 C26.45003906 31.54316406 25.33757812 31.52382813 24.19140625 31.50390625 C20.32646981 32.10469808 18.73984992 33.2504857 16 36 C14.33895374 38.79347274 13.74259097 40.89020878 13.68115234 44.12597656 C13.66128265 44.92650452 13.64141296 45.72703247 13.62094116 46.55181885 C13.60361435 47.83327789 13.60361435 47.83327789 13.5859375 49.140625 C13.56657135 50.02280701 13.5472052 50.90498901 13.5272522 51.81390381 C13.46757152 54.62583816 13.42111717 57.4378137 13.375 60.25 C13.33680962 62.15887181 13.29775727 64.06772659 13.2578125 65.9765625 C13.16187942 70.65090296 13.07780584 75.32532409 13 80 C8.71 80 4.42 80 0 80 C0 53.6 0 27.2 0 0 Z " fill="#F3F3F3" transform="translate(141,309)"/>
<path d="M0 0 C5.53724789 4.56310243 9.07065219 8.80465391 11.109375 15.73828125 C-2.48336671 16.81544191 -2.48336671 16.81544191 -5.7890625 14.28515625 C-6.953125 12.42578125 -6.953125 12.42578125 -7.92578125 10.4921875 C-9.8538784 6.98726595 -13.57422389 6.12964374 -17.203125 5.05078125 C-25.23243404 4.11714066 -31.73091339 4.59831195 -38.890625 8.73828125 C-44.42876971 13.4387234 -47.51918954 19.42547848 -48.32421875 26.60546875 C-48.34743034 27.94120522 -48.34823742 29.27749452 -48.328125 30.61328125 C-48.32127686 31.31437012 -48.31442871 32.01545898 -48.30737305 32.73779297 C-48.0430958 41.29166564 -45.09939649 47.80545516 -38.890625 53.73828125 C-32.39449317 58.02893622 -25.5144461 58.87838454 -17.890625 57.73828125 C-12.66316079 56.05315904 -8.86920087 54.45717103 -6.09375 49.58203125 C-3.890625 46.73828125 -3.890625 46.73828125 -0.21875 46.15234375 C1.1418652 46.19197332 2.50186697 46.26320032 3.859375 46.36328125 C4.55675781 46.39035156 5.25414063 46.41742188 5.97265625 46.4453125 C7.68623205 46.51573342 9.39820802 46.62335212 11.109375 46.73828125 C9.06483848 54.12013415 4.34718373 59.79759649 -1.9453125 64.1640625 C-3.8953525 65.17823993 -5.82809808 65.9813539 -7.890625 66.73828125 C-8.90189453 67.18107422 -8.90189453 67.18107422 -9.93359375 67.6328125 C-19.56844024 71.47622121 -29.60555271 70.59605187 -39.171875 66.99609375 C-49.19417597 62.35933956 -56.34193782 54.41931328 -60.1640625 44.1328125 C-63.09057994 34.4878921 -63.33444012 24.05991423 -59.01953125 14.84375 C-53.31851312 4.21105529 -46.04567875 -1.73282772 -34.890625 -6.26171875 C-22.63299913 -9.46607449 -10.23646426 -7.31435301 0 0 Z " fill="#F7F7F7" transform="translate(115.890625,320.26171875)"/>
<path d="M0 0 C4.29 0 8.58 0 13 0 C13 4.62 13 9.24 13 14 C17.62 14 22.24 14 27 14 C27 17.63 27 21.26 27 25 C22.38 25 17.76 25 13 25 C13.09341361 30.09066226 13.19947911 35.18084204 13.31738281 40.27099609 C13.35571341 42.00334407 13.39055906 43.73577274 13.421875 45.46826172 C13.46743765 47.95569749 13.52544503 50.44257566 13.5859375 52.9296875 C13.59748871 53.70682098 13.60903992 54.48395447 13.62094116 55.28463745 C13.58793768 59.60650975 13.58793768 59.60650975 16 63 C18.66242821 63.46290221 18.66242821 63.46290221 21.625 63.625 C22.62789063 63.69976562 23.63078125 63.77453125 24.6640625 63.8515625 C25.43492187 63.90054688 26.20578125 63.94953125 27 64 C27 67.3 27 70.6 27 74 C9.52627514 74.75516698 9.52627514 74.75516698 4 70 C2.125 67.375 2.125 67.375 1 65 C0.67 64.34 0.34 63.68 0 63 C-0.08691001 60.15570643 -0.11553802 57.33620824 -0.09765625 54.4921875 C-0.0962413 53.65156769 -0.09482635 52.81094788 -0.09336853 51.94485474 C-0.08776237 49.25486725 -0.07520886 46.56496241 -0.0625 43.875 C-0.05748579 42.05338662 -0.05292275 40.23177193 -0.04882812 38.41015625 C-0.03779094 33.94007223 -0.0205222 29.47005014 0 25 C-2.31 25 -4.62 25 -7 25 C-7 21.37 -7 17.74 -7 14 C-4.69 14 -2.38 14 0 14 C0 9.38 0 4.76 0 0 Z " fill="#F4F4F4" transform="translate(286,315)"/>
<path d="M0 0 C4.29 0 8.58 0 13 0 C13 4.95 13 9.9 13 15 C17.95 15 22.9 15 28 15 C28 18.3 28 21.6 28 25 C23.05 25 18.1 25 13 25 C13.09354152 29.92994256 13.19963642 34.85939439 13.31738281 39.78881836 C13.35566993 41.46582634 13.39052331 43.14291638 13.421875 44.82006836 C13.46753179 47.23060432 13.5255241 49.64057557 13.5859375 52.05078125 C13.59748871 52.80087967 13.60903992 53.55097809 13.62094116 54.32380676 C13.72695459 58.06127713 13.87619082 59.81428623 16 63 C18.6556728 63.58348752 18.6556728 63.58348752 21.625 63.6875 C22.62789063 63.75324219 23.63078125 63.81898438 24.6640625 63.88671875 C25.43492187 63.92410156 26.20578125 63.96148437 27 64 C27 67.3 27 70.6 27 74 C10.54449626 74.89866222 10.54449626 74.89866222 4.48046875 70.77734375 C0.02783281 65.43183094 -0.42620668 59.87601672 -0.29296875 53.22265625 C-0.28872391 52.41130722 -0.28447906 51.59995819 -0.28010559 50.76402283 C-0.26343867 48.19649744 -0.22581048 45.62978436 -0.1875 43.0625 C-0.1724376 41.31186037 -0.15875193 39.56120832 -0.14648438 37.81054688 C-0.11357468 33.54005608 -0.06187726 29.27016531 0 25 C-2.31 25 -4.62 25 -7 25 C-7 21.37 -7 17.74 -7 14 C-4.69 14 -2.38 14 0 14 C0 9.38 0 4.76 0 0 Z " fill="#F4F4F4" transform="translate(326,315)"/>
<path d="M0 0 C5.39221648 2.5542078 8.74150714 6.29424035 11.25 11.6875 C12.98843507 19.36558822 12.71842365 25.30290402 8.5 32.0859375 C5.61976354 35.76123923 2.43545624 37.52151459 -2 39 C-7.83261998 39.38884133 -11.83308781 39.06187389 -17 36 C-22.84101766 29.68538631 -24.37656275 24.61689547 -24.2734375 16.078125 C-23.75049333 10.19126775 -21.46190753 5.92882414 -17.0625 2 C-11.92463969 -1.28066838 -5.83228932 -0.81171037 0 0 Z " fill="#030303" transform="translate(244,340)"/>
<path d="M0 0 C0 4.29 0 8.58 0 13 C-1.546875 13.0825 -3.09375 13.165 -4.6875 13.25 C-9.25806026 13.71546017 -11.84894683 14.45506518 -15 18 C-17.29615271 22.39594407 -17.34250634 26.72834613 -17.4140625 31.58203125 C-17.43342865 32.39621017 -17.4527948 33.2103891 -17.4727478 34.04924011 C-17.53228752 36.63688852 -17.57882583 39.22458203 -17.625 41.8125 C-17.6632034 43.57228449 -17.7022565 45.33205074 -17.7421875 47.09179688 C-17.83796782 51.39438234 -17.92209285 55.6970553 -18 60 C-21.96 60 -25.92 60 -30 60 C-30 40.53 -30 21.06 -30 1 C-26.04 1 -22.08 1 -18 1 C-17.67 3.31 -17.34 5.62 -17 8 C-16.46375 7.236875 -15.9275 6.47375 -15.375 5.6875 C-10.84946063 0.56649492 -6.70033338 -0.40202 0 0 Z " fill="#FCFCFC" transform="translate(461,329)"/>
<path d="M0 0 C4.74768884 2.1169732 7.44308969 4.53484978 9.78125 9.30859375 C9.78125 10.95859375 9.78125 12.60859375 9.78125 14.30859375 C-0.77875 14.30859375 -11.33875 14.30859375 -22.21875 14.30859375 C-21.08113987 6.34532283 -19.80466226 5.19724529 -13.96875 0.49609375 C-9.30534704 -1.51764844 -4.84526211 -1.50987921 0 0 Z " fill="#050505" transform="translate(396.21875,339.69140625)"/>
</svg>
