<?xml version="1.0" encoding="UTF-8"?>
<svg version="1.1" xmlns="http://www.w3.org/2000/svg" width="500" height="500">
<path d="M0 0 C2.11181641 1.14282227 2.11181641 1.14282227 4.2265625 2.62890625 C5.00708984 3.17224609 5.78761719 3.71558594 6.59179688 4.27539062 C7.38650391 4.84451172 8.18121094 5.41363281 9 6 C9.75861328 6.53818359 10.51722656 7.07636719 11.29882812 7.63085938 C13.58298726 9.26296276 15.85553651 10.91003473 18.125 12.5625 C19.64831771 13.66813382 21.17175356 14.77360488 22.6953125 15.87890625 C23.4162207 16.40242676 24.13712891 16.92594727 24.87988281 17.46533203 C27.90947119 19.65832979 30.95363822 21.83037629 34 24 C34.88300781 23.52949219 35.76601562 23.05898437 36.67578125 22.57421875 C37.88773195 21.94475598 39.09998851 21.31588187 40.3125 20.6875 C40.88806641 20.37876953 41.46363281 20.07003906 42.05664062 19.75195312 C50.99271632 15.1631575 59.98439801 13.54868892 69.95654297 13.59594727 C70.99065308 13.58908401 72.02476318 13.58222076 73.09020996 13.57514954 C76.47434619 13.55699966 79.85801353 13.56070245 83.2421875 13.56640625 C85.6167109 13.56183862 87.99123298 13.55653132 90.36575317 13.55052185 C95.32999052 13.54161374 100.29406679 13.54398751 105.25830078 13.55395508 C111.59170152 13.5654382 117.92454415 13.5452308 124.25787163 13.51603794 C129.15837076 13.49761242 134.05873773 13.49798113 138.95926285 13.50367546 C141.29303902 13.50382792 143.62682458 13.49784692 145.96056747 13.48538399 C160.48583376 13.41873539 173.30777351 13.48911057 186.125 21.25 C189.79432777 23.5367384 189.79432777 23.5367384 194 24 C196.10085229 22.66473807 198.07032696 21.29596745 200.0625 19.8125 C200.9611377 19.15713257 200.9611377 19.15713257 201.87792969 18.48852539 C203.19747386 17.52600872 204.51491376 16.56060259 205.83056641 15.59277344 C208.98223981 13.27885072 212.14963899 10.98688434 215.31811523 8.69604492 C216.92466695 7.53431497 218.52967946 6.37045313 220.13305664 5.2043457 C221.23508423 4.40516724 221.23508423 4.40516724 222.359375 3.58984375 C223.01389648 3.11409912 223.66841797 2.63835449 224.34277344 2.14819336 C228.36714407 -0.64005282 232.23234293 -0.56914937 237 0 C240.75907225 1.91952626 242.22937924 3.89411861 243.5 7.8125 C244.47146931 11.27693099 243.69087488 13.97232034 242.18212891 17.20874023 C239.85953052 20.72813394 236.39424825 22.81198311 232.9375 25.125 C231.31477323 26.25212786 229.69238752 27.37974689 228.0703125 28.5078125 C227.23532227 29.08047852 226.40033203 29.65314453 225.54003906 30.24316406 C221.41603245 33.09556233 217.3679079 36.0513071 213.3125 39 C211.19656871 40.5306538 209.07951606 42.0595518 206.95751953 43.58178711 C205.65656483 44.52432213 204.36565949 45.4808919 203.08544922 46.45141602 C198.82365473 49.64120088 196.20952276 51.05315036 190.9375 50.828125 C186.24917644 49.50641676 182.55534871 46.75109703 178.70507812 43.82202148 C169.23384307 36.75844431 159.2668524 36.5153723 147.84130859 36.60888672 C145.50428911 36.62497048 143.16899836 36.60897108 140.83203125 36.58984375 C127.84452937 36.56877136 118.01178901 38.02790198 108.4140625 47.42578125 C107.14589295 48.71631478 105.88295695 50.01200967 104.625 51.3125 C100.93757119 55.10320742 97.26041717 58.83093417 93.2421875 62.2734375 C88.26933728 66.55826987 83.63547447 71.17845738 78.99707031 75.81762695 C77.47997975 77.33249086 75.95500263 78.83912592 74.4296875 80.34570312 C73.46305507 81.309408 72.49689103 82.27358298 71.53125 83.23828125 C70.22510742 84.5382605 70.22510742 84.5382605 68.89257812 85.86450195 C66.77891383 87.77388767 66.77891383 87.77388767 67 90 C68.24735567 90.6509259 69.49801832 91.29551669 70.75 91.9375 C71.44609375 92.29714844 72.1421875 92.65679687 72.859375 93.02734375 C76.88409276 94.85609324 80.59146484 95.23453197 85 95.375 C86.546875 95.44847656 86.546875 95.44847656 88.125 95.5234375 C100.86179316 93.80294326 108.09261862 86.76609462 116.4375 77.8125 C118.01084633 76.14835118 119.5893634 74.48978579 121.17701721 72.83927917 C122.15455953 71.8207481 123.12353454 70.79389792 124.08213806 69.75752258 C126.83708038 66.86014556 129.13383789 65.08393769 133 64 C141.76456408 63.85631862 145.49259455 68.64580689 151.55276489 74.44125366 C154.46951453 77.27147097 157.3662743 80.12060636 160.25390625 82.98046875 C160.77842817 83.499667 161.3029501 84.01886524 161.84336662 84.55379677 C164.61676974 87.30066758 167.3866165 90.05107365 170.15405273 92.80395508 C172.42124006 95.05780697 174.69547185 97.30416273 176.97631836 99.54418945 C179.75907338 102.27718765 182.52893706 105.02266855 185.29044914 107.7771244 C186.33259501 108.81263555 187.3789269 109.84395435 188.42981148 110.87059593 C195.36543346 117.65517468 200.54990401 124.35319236 205 133 C205.71019287 132.2479126 206.42038574 131.4958252 207.15209961 130.72094727 C209.80943519 127.91807424 212.49377021 125.14236958 215.18676758 122.3737793 C216.34526733 121.17521429 217.49646628 119.96954524 218.63989258 118.7565918 C220.29168028 117.0070056 221.96865495 115.28524781 223.65234375 113.56640625 C224.15273666 113.02472305 224.65312958 112.48303986 225.16868591 111.92494202 C228.8456977 108.24348514 231.80633481 107.29817807 236.97364807 106.90708923 C240.94820011 107.08932741 243.02839902 109.09540598 245.8125 111.6875 C247.59651478 115.16163404 247.83756393 118.24987975 247 122 C243.40968602 128.20969498 238.00145506 133.26662309 232.93359375 138.26171875 C232.17708023 139.01540237 231.42056671 139.769086 230.64112854 140.54560852 C228.2446173 142.93102144 225.84122794 145.30936162 223.4375 147.6875 C221.82049897 149.29445453 220.20395822 150.90187237 218.58789062 152.50976562 C214.98281638 156.09506692 211.37590868 159.67845982 207.75656128 163.24935913 C206.64824537 164.35393951 205.55025469 165.46907013 204.46731567 166.59854126 C203.34564286 167.76610522 202.17771818 168.88899352 201 170 C200.34 170 199.68 170 199 170 C198.67 170.99 198.34 171.98 198 173 C196.50390625 174.47265625 196.50390625 174.47265625 194.5625 176.0625 C191.27129354 178.82944348 188.32071974 181.74425985 185.375 184.875 C168.69276574 201.63364144 146.42425809 208.27986101 123.23257446 208.45587158 C121.22983646 208.45796039 119.22708598 208.45461531 117.22436523 208.44604492 C114.20291718 208.43754338 111.18337163 208.46637849 108.16210938 208.49804688 C93.24122141 208.55279724 79.4596484 206.90836896 65.6875 200.8125 C64.49511719 200.30332031 63.30273438 199.79414063 62.07421875 199.26953125 C49.8967273 192.97045053 40.38964014 182.80916689 30.86328125 173.19140625 C29.44851881 171.77357897 28.0331585 170.35634806 26.61723328 168.93968201 C23.67551192 165.99339357 20.73872557 163.04230963 17.8059082 160.0871582 C14.04226484 156.29500006 10.26978028 152.51179131 6.49407673 148.73164463 C3.58289378 145.816316 0.67455221 142.89816788 -2.23273659 139.97895622 C-3.62418928 138.58180341 -5.0161133 137.18511983 -6.40851402 135.78891182 C-8.3422895 133.84829124 -10.27263501 131.90432767 -12.2019043 129.95922852 C-12.77790375 129.38211121 -13.3539032 128.8049939 -13.94735718 128.21038818 C-18.90991706 123.19359895 -18.90991706 123.19359895 -19.25 118.6875 C-18.92556346 113.90206099 -17.52056699 111.63320159 -14.3125 108.1875 C-10.82124312 106.39469241 -7.75537882 106.03935175 -4 107 C-2.09094238 108.33850098 -2.09094238 108.33850098 -0.18945312 110.08789062 C0.50559326 110.72428467 1.20063965 111.36067871 1.91674805 112.01635742 C5.0884445 115.03640122 8.20541705 118.10119024 11.28125 121.21875 C11.93903442 121.88032104 12.59681885 122.54189209 13.27453613 123.22351074 C16.05066558 126.01578144 18.82071537 128.81405416 21.59130859 131.61181641 C23.6316708 133.67040898 25.67514331 135.72587903 27.71875 137.78125 C28.63630066 138.71124817 28.63630066 138.71124817 29.5723877 139.66003418 C33.30595265 143.41435382 37.17572231 146.93741673 41.18215942 150.39810181 C43.47399509 152.41768893 45.59509111 154.56388608 47.69921875 156.77734375 C63.88456877 173.65439734 63.88456877 173.65439734 85 183 C86.2375 183.3403125 86.2375 183.3403125 87.5 183.6875 C91.32935274 184.16616909 95.14644695 184.07555986 99 184 C98.57847656 183.51789063 98.15695313 183.03578125 97.72265625 182.5390625 C97.17480469 181.90742188 96.62695312 181.27578125 96.0625 180.625 C95.51722656 179.99851562 94.97195312 179.37203125 94.41015625 178.7265625 C91.74955768 175.46898752 91.59938019 173.16644605 92 169 C94.03993908 165.3421782 95.50419262 163.33053826 99 161 C102.12996531 160.30239432 104.85656421 160.40181915 108 161 C109.93652344 162.28955078 109.93652344 162.28955078 111.796875 164.0078125 C112.48547607 164.64227295 113.17407715 165.2767334 113.88354492 165.93041992 C118.08571115 170.03951706 122.12382984 174.31561897 126.08789062 178.65429688 C130.09386386 182.8684702 130.09386386 182.8684702 135.5078125 184.625 C139.44231454 183.92083856 143.05950486 182.91805944 146.8125 181.5625 C147.81313477 181.21735352 147.81313477 181.21735352 148.83398438 180.86523438 C151.28418159 180.01223938 153.67712554 179.16143723 156 178 C154.20157987 173.40164433 150.51042683 170.51810247 146.90039062 167.33007812 C144.13333119 164.72513668 143.01704674 163.06782426 142.08203125 159.34765625 C141.96668812 154.6405579 143.64089788 151.97069807 146.25 148.1875 C149.06835143 146.27504724 151.64556068 146.17350548 155 146 C160.17810935 147.29452734 163.08778862 150.81127925 166.625 154.5625 C167.75831006 155.75579381 168.89615525 156.94480118 170.0390625 158.12890625 C170.53615723 158.65556885 171.03325195 159.18223145 171.54541016 159.72485352 C173.09046866 161.24547875 173.09046866 161.24547875 176 162 C176.9841125 160.73299277 177.96211497 159.4612381 178.9375 158.1875 C179.48277344 157.47980469 180.02804687 156.77210938 180.58984375 156.04296875 C182.70803452 152.97423253 183.17449931 150.33040819 183.25 146.6875 C183.28867187 145.57955078 183.28867187 145.57955078 183.328125 144.44921875 C182.59074401 138.94519635 179.45754761 135.08398703 175.62036133 131.27978516 C174.29933159 129.95909531 174.29933159 129.95909531 172.95161438 128.61172485 C171.99524761 127.67067382 171.03871607 126.7297902 170.08203125 125.7890625 C169.09917252 124.81180593 168.11697918 123.83387975 167.13542175 122.85531616 C164.56263243 120.29392682 161.98095987 117.74167933 159.39727783 115.19128418 C156.75743185 112.58224403 154.12616271 109.96458484 151.49414062 107.34765625 C146.33774324 102.22333737 141.17192272 97.10865396 136 92 C134.87983669 92.94619753 133.7616473 93.89473219 132.64428711 94.84423828 C131.7099308 95.63618088 131.7099308 95.63618088 130.75669861 96.44412231 C128.50975502 98.43420153 126.56107688 100.63806074 124.5625 102.875 C114.46863848 113.0455626 99.79322953 118.69485484 85.5625 119.375 C69.70142236 118.67780977 55.75175773 112.73104496 45 101 C41.51589232 95.92789766 40.2870734 91.03486116 41.3671875 84.921875 C43.97419321 76.74682007 50.51695235 71.21462528 57 66 C58.67933637 64.34610009 60.34423316 62.67749567 62 61 C70 53 78 45 86 37 C64.10085277 35.84980809 64.10085277 35.84980809 45.3125 45.75 C44.52488281 46.54921875 43.73726562 47.3484375 42.92578125 48.171875 C38.61779212 50.86364925 34.9441209 50.96014217 30 50 C26.81234893 48.51485644 24.22676122 46.51611987 21.5 44.3125 C19.94192376 43.12041705 18.38331357 41.92903171 16.82421875 40.73828125 C15.63771729 39.81329834 15.63771729 39.81329834 14.42724609 38.86962891 C10.46038936 35.81408788 6.38370779 32.91411431 2.3125 30 C0.19587319 28.47166268 -1.91961333 26.94180675 -4.03295898 25.40893555 C-5.34523994 24.46898601 -6.66783988 23.54328001 -8.00024414 22.63208008 C-12.51852974 19.52477402 -14.62012542 17.4275067 -16 12 C-15.79809684 7.68734853 -14.68189491 4.82653928 -11.9375 1.5 C-7.75050426 -0.63804038 -4.59570929 -0.89741358 0 0 Z " fill="#B096F8" transform="translate(129,90)"/>
<path d="M0 0 C3.0625 2.1875 3.0625 2.1875 5 4 C5.33 2.02 5.66 0.04 6 -2 C10.62 -2 15.24 -2 20 -2 C20 17.8 20 37.6 20 58 C15.38 58 10.76 58 6 58 C5.505 55.03 5.505 55.03 5 52 C4.18595703 52.63228516 4.18595703 52.63228516 3.35546875 53.27734375 C2.64003906 53.82519531 1.92460937 54.37304688 1.1875 54.9375 C0.47980469 55.48277344 -0.22789062 56.02804687 -0.95703125 56.58984375 C-6.66975612 60.5330439 -14.37173816 59.57520739 -21 59 C-28.39971984 56.91364948 -33.85973691 52.41356404 -38 46 C-42.69802702 37.18945675 -43.48822909 27.61342253 -41.3046875 17.91015625 C-38.56943503 9.53200899 -34.73320023 4.19277423 -26.875 0.125 C-17.84038026 -4.12493016 -9.13031411 -4.22078351 0 0 Z M-25.3125 15.3125 C-29.36642266 21.76874719 -29.43358369 27.73570618 -28 35 C-26.14212662 40.36718977 -22.90063356 44.16424013 -18 47 C-12.90598952 48.56802603 -8.50269486 48.59130828 -3.625 46.375 C0.99905558 43.67141911 3.97880797 39.93686904 6 35 C6.66326407 28.33290401 7.07304042 21.61798679 3 16 C-0.36046453 12.20870669 -3.2179419 9.40076549 -8.33203125 8.6640625 C-15.77647287 8.5468272 -19.92632921 9.92632921 -25.3125 15.3125 Z " fill="#FDFDFD" transform="translate(249,331)"/>
<path d="M0 0 C6.96082721 4.84449502 11.68911751 9.80687116 14 18 C14 22.95 14 27.9 14 33 C-0.85 33 -15.7 33 -31 33 C-28.20756988 41.16331744 -28.20756988 41.16331744 -22.1796875 46.08203125 C-18.24825844 47.73774062 -14.18574112 47.44167723 -10 47 C-6.88289134 45.67357078 -5.47787431 44.87122663 -3.8515625 41.90625 C-2 40 -2 40 1.57421875 39.609375 C2.94585748 39.6358801 4.31721938 39.6834691 5.6875 39.75 C6.38939453 39.76804687 7.09128906 39.78609375 7.81445312 39.8046875 C9.54355436 39.85173787 11.27195205 39.92348127 13 40 C10.88837285 47.23103543 6.84576222 52.56541571 0.3125 56.4375 C-7.46000832 60.10377751 -17.45575094 60.35131419 -25.8046875 58.31640625 C-28.04719403 57.3813819 -29.97603843 56.34092692 -32 55 C-32.94939453 54.38125 -32.94939453 54.38125 -33.91796875 53.75 C-40.27105864 48.98179608 -43.81753648 41.77559347 -45 34 C-45.9274591 23.38743527 -43.96876328 13.36251593 -37 5 C-27.24131526 -4.13078009 -11.8884934 -5.79702077 0 0 Z M-26.640625 12.33203125 C-29.94212371 15.92762898 -30.16064592 17.96387551 -31 23 C-20.44 22.67 -9.88 22.34 1 22 C-0.66133165 15.2553474 -0.66133165 15.2553474 -5.171875 11.01171875 C-12.32166114 7.05489266 -20.13746181 7.05208209 -26.640625 12.33203125 Z " fill="#FDFDFD" transform="translate(405,331)"/>
<path d="M0 0 C6.52668376 4.49016214 11.01747092 10.26994497 13.765625 17.6796875 C-0.61465184 18.75564646 -0.61465184 18.75564646 -4.421875 16.2265625 C-5.859375 14.3671875 -5.859375 14.3671875 -7.1015625 12.43359375 C-8.95241243 9.56796748 -11.06741261 8.77594371 -14.234375 7.6796875 C-22.70031384 5.98364925 -30.20908434 6.79614712 -37.6328125 11.35546875 C-43.22065759 15.97566261 -45.77463967 23.16013555 -46.48828125 30.17578125 C-46.83403748 38.03894706 -45.63202457 45.72876723 -40.36328125 51.85546875 C-33.53459456 58.0903566 -27.84014462 59.14536984 -18.6875 58.9921875 C-14.16255211 58.58268995 -10.76082953 57.58901249 -7.234375 54.6796875 C-6.2134375 53.0709375 -6.2134375 53.0709375 -5.171875 51.4296875 C-4.0625 49.875 -4.0625 49.875 -2.234375 48.6796875 C2.81441367 48.14880629 7.70884234 48.33620792 12.765625 48.6796875 C11.81509851 55.44030714 7.74837741 60.12698072 2.65234375 64.48828125 C-7.15869359 71.47624923 -17.36629881 72.77881214 -29.234375 71.6796875 C-37.03606727 70.06836949 -43.39317501 67.10084614 -49.234375 61.6796875 C-49.77707031 61.17824219 -50.31976563 60.67679687 -50.87890625 60.16015625 C-58.94603872 51.76625386 -60.93359091 41.80536038 -60.7578125 30.55444336 C-60.25508082 18.95553916 -55.38999782 10.27054196 -46.921875 2.4296875 C-33.89188178 -8.19699586 -14.12314638 -8.34549559 0 0 Z " fill="#FDFDFD" transform="translate(114.234375,318.3203125)"/>
<path d="M0 0 C4.29 0 8.58 0 13 0 C13.33 8.25 13.66 16.5 14 25 C16.64 23.35 19.28 21.7 22 20 C29.40123939 17.5945972 37.08430165 18.72872542 44 22 C50.41077562 25.82375002 52.93688006 30.98867694 55 38 C55.46869189 41.41007755 55.47245608 44.72719715 55.390625 48.1640625 C55.38496521 49.08214691 55.37930542 50.00023132 55.37347412 50.94613647 C55.35132475 53.8396523 55.30117171 56.73186711 55.25 59.625 C55.22990718 61.60284653 55.21166133 63.58071273 55.1953125 65.55859375 C55.15153075 70.37288678 55.08265631 75.18622389 55 80 C50.71 80 46.42 80 42 80 C41.98541748 78.8855249 41.97083496 77.7710498 41.95581055 76.62280273 C41.8975792 72.4646084 41.82034886 68.30694159 41.73754883 64.14916992 C41.70441587 62.35401 41.67634813 60.55874883 41.65356445 58.76342773 C41.61980336 56.17387988 41.56747875 53.58525029 41.51171875 50.99609375 C41.50532883 50.20101913 41.4989389 49.40594452 41.49235535 48.58677673 C41.35627339 43.36010103 40.42858941 39.65185701 38 35 C34.88710192 32.07576241 32.12721035 31.77831391 28 31.625 C23.8761403 31.75980671 21.2310726 32.25848386 18 35 C13.57075274 39.90380946 13.8180989 45.1368992 13.68359375 51.484375 C13.66281265 52.29996887 13.64203156 53.11556274 13.62062073 53.95587158 C13.55538703 56.55383105 13.49636232 59.15188913 13.4375 61.75 C13.39428986 63.514333 13.35067478 65.27865613 13.30664062 67.04296875 C13.19973255 71.36187884 13.09839173 75.68088784 13 80 C8.71 80 4.42 80 0 80 C0 53.6 0 27.2 0 0 Z " fill="#FDFDFD" transform="translate(141,309)"/>
<path d="M0 0 C4.29 0 8.58 0 13 0 C13 4.95 13 9.9 13 15 C17.95 15 22.9 15 28 15 C28 18.63 28 22.26 28 26 C23.05 26 18.1 26 13 26 C13.11810088 30.9480849 13.2423384 35.89596276 13.37231445 40.84375 C13.41567817 42.52762642 13.4573522 44.21154723 13.49731445 45.89550781 C13.55498234 48.31328724 13.6186865 50.73084295 13.68359375 53.1484375 C13.70030624 53.9036972 13.71701874 54.65895691 13.73423767 55.43710327 C13.77555107 59.34739799 13.77555107 59.34739799 15 63 C18.04581269 63.46954261 18.04581269 63.46954261 21.5625 63.625 C22.76003906 63.69976562 23.95757812 63.77453125 25.19140625 63.8515625 C26.11824219 63.90054688 27.04507813 63.94953125 28 64 C28 67.63 28 71.26 28 75 C25.14479219 75.10876982 22.29379439 75.18766466 19.4375 75.25 C18.63763672 75.28351563 17.83777344 75.31703125 17.01367188 75.3515625 C11.14050673 75.44745091 7.71640358 74.59231748 3 71 C-0.29406428 65.93169182 -0.40279031 61.71374817 -0.29296875 55.8828125 C-0.28872391 55.02565643 -0.28447906 54.16850037 -0.28010559 53.28536987 C-0.26339886 50.56491836 -0.22576219 47.84522518 -0.1875 45.125 C-0.17244278 43.27344825 -0.1587562 41.42188481 -0.14648438 39.5703125 C-0.11352165 35.04658567 -0.06179537 30.52342113 0 26 C-2.31 26 -4.62 26 -7 26 C-7 22.37 -7 18.74 -7 15 C-4.69 15 -2.38 15 0 15 C0 10.05 0 5.1 0 0 Z " fill="#FDFDFD" transform="translate(286,314)"/>
<path d="M0 0 C4.29 0 8.58 0 13 0 C13 4.95 13 9.9 13 15 C17.95 15 22.9 15 28 15 C28 18.63 28 22.26 28 26 C23.05 26 18.1 26 13 26 C13.495 44.315 13.495 44.315 14 63 C20.93 63.495 20.93 63.495 28 64 C28 67.63 28 71.26 28 75 C25.12397545 75.10852923 22.25209168 75.1875515 19.375 75.25 C18.56675781 75.28351563 17.75851562 75.31703125 16.92578125 75.3515625 C11.42076187 75.44107501 8.37560192 74.6587336 4 71 C-0.25299757 66.16038208 -0.13679317 61.57995908 -0.09765625 55.39453125 C-0.0962413 54.55532639 -0.09482635 53.71612152 -0.09336853 52.85148621 C-0.08777215 50.17178784 -0.07522035 47.4921731 -0.0625 44.8125 C-0.05748453 42.99544392 -0.05292171 41.17838652 -0.04882812 39.36132812 C-0.03780391 34.90751987 -0.02054178 30.45377411 0 26 C-2.31 26 -4.62 26 -7 26 C-7 22.37 -7 18.74 -7 15 C-4.69 15 -2.38 15 0 15 C0 10.05 0 5.1 0 0 Z " fill="#FDFDFD" transform="translate(326,314)"/>
<path d="M0 0 C0 4.62 0 9.24 0 14 C-2.99479167 14.390625 -5.98958333 14.78125 -8.984375 15.171875 C-12.45268859 16.12431345 -13.78646498 17.20722217 -16 20 C-17.28774446 23.86323338 -17.23382793 27.57490537 -17.31640625 31.60546875 C-17.33718735 32.44467361 -17.35796844 33.28387848 -17.37937927 34.14851379 C-17.44474018 36.82809294 -17.50369714 39.50776969 -17.5625 42.1875 C-17.60569802 44.00456737 -17.64931273 45.82162488 -17.69335938 47.63867188 C-17.8004078 52.09234799 -17.90171319 56.54612226 -18 61 C-22.29 61 -26.58 61 -31 61 C-31 41.2 -31 21.4 -31 1 C-26.71 1 -22.42 1 -18 1 C-17.67 2.98 -17.34 4.96 -17 7 C-16.13375 6.21625 -15.2675 5.4325 -14.375 4.625 C-9.78078273 0.80909718 -5.98188799 0 0 0 Z " fill="#FDFDFD" transform="translate(462,328)"/>
<path d="M0 0 C3.33197683 1.57893677 6.09821322 3.74153387 9 6 C10.07631849 6.80320771 11.15455707 7.60384681 12.234375 8.40234375 C15.17243773 10.58045163 18.09010909 12.78434702 21 15 C19.02 15.99 19.02 15.99 17 17 C16.67 15.68 16.34 14.36 16 13 C15.13375 12.8453125 15.13375 12.8453125 14.25 12.6875 C11.64338842 11.89103535 10.0264689 10.80934723 8 9 C8 8.34 8 7.68 8 7 C7.236875 6.71125 6.47375 6.4225 5.6875 6.125 C3.15280222 5.06396372 0.96932255 3.96932255 -1 2 C-6.70320894 1.44086187 -9.50812136 2.4941435 -14 6 C-11.18680398 -0.49199081 -6.47705758 -1.14665613 0 0 Z " fill="#AD9CE5" transform="translate(129,90)"/>
<path d="M0 0 C3.0212263 2.00047242 5.69662367 4.1942916 8 7 C8 7.99 8 8.98 8 10 C7.34 10 6.68 10 6 10 C5.67 8.68 5.34 7.36 5 6 C4.34 6 3.68 6 3 6 C2.34 5.01 1.68 4.02 1 3 C-1.88595946 2.41518879 -1.88595946 2.41518879 -5.125 2.3125 C-6.22070312 2.24675781 -7.31640625 2.18101562 -8.4453125 2.11328125 C-9.28835938 2.07589844 -10.13140625 2.03851563 -11 2 C-11.33 2.66 -11.66 3.32 -12 4 C-13.64295195 5.36244796 -15.30824337 6.69864875 -17 8 C-17.66 7.67 -18.32 7.34 -19 7 C-17.73427767 5.84852339 -16.46222094 4.70400686 -15.1875 3.5625 C-14.47980469 2.92441406 -13.77210938 2.28632813 -13.04296875 1.62890625 C-8.9969523 -1.59707627 -4.76823598 -1.53596274 0 0 Z " fill="#AD9BE6" transform="translate(270,155)"/>
<path d="M0 0 C1.0209375 0.99 1.0209375 0.99 2.0625 2 C5.6361656 4.43313403 7.87369816 4.75612861 12 4 C15.43631486 3.01057123 18.82326775 1.93381988 22.20703125 0.77734375 C25 0 25 0 27 1 C24.75 3.5625 24.75 3.5625 22 6 C20.0625 5.6875 20.0625 5.6875 18 5 C17.0925 5.33 16.185 5.66 15.25 6 C10.8890318 7.34183637 8.46129837 7.00738995 4 6 C1.5 4.0625 1.5 4.0625 0 2 C0 1.34 0 0.68 0 0 Z " fill="#AC9AE5" transform="translate(256,270)"/>
<path d="M0 0 C0.66 0.33 1.32 0.66 2 1 C-2.95 5.95 -7.9 10.9 -13 16 C-13.66 15.01 -14.32 14.02 -15 13 C-12.87219421 10.65941363 -10.88437779 9.29299694 -8 8 C-8 7.01 -8 6.02 -8 5 C-7.34 5 -6.68 5 -6 5 C-6 4.34 -6 3.68 -6 3 C-4.03533587 1.93224776 -2.03144641 0.93446535 0 0 Z " fill="#A793DE" transform="translate(355,232)"/>
<path d="M0 0 C0.66 0.33 1.32 0.66 2 1 C0.44395612 2.61042988 -1.12012756 4.21309368 -2.6875 5.8125 C-3.55761719 6.70582031 -4.42773438 7.59914062 -5.32421875 8.51953125 C-7.77362182 10.79014577 -10.07585703 12.41411345 -13 14 C-11.84826645 11.53199953 -10.95216435 9.95216435 -9 8 C-9.99 7.67 -10.98 7.34 -12 7 C-11.67 6.01 -11.34 5.02 -11 4 C-10.113125 4.268125 -9.22625 4.53625 -8.3125 4.8125 C-4.79457985 5.39309751 -4.79457985 5.39309751 -2.125 2.5625 C-1.42375 1.716875 -0.7225 0.87125 0 0 Z " fill="#AA94EC" transform="translate(234,138)"/>
<path d="M0 0 C0.33 0.66 0.66 1.32 1 2 C0.67 2.99 0.34 3.98 0 5 C-0.66 5 -1.32 5 -2 5 C-2.2475 5.5775 -2.495 6.155 -2.75 6.75 C-4.2127149 9.38288682 -5.63826769 11.12450669 -8 13 C-9.32 12.67 -10.64 12.34 -12 12 C-8.04 8.04 -4.08 4.08 0 0 Z " fill="#A996E7" transform="translate(351,206)"/>
<path d="M0 0 C0 4.71778663 -2.96033011 7.5598089 -6 11 C-8.75 13.0625 -8.75 13.0625 -11 14 C-11.66 13.67 -12.32 13.34 -13 13 C-9.0580583 8.11950075 -4.88049925 3.9419417 0 0 Z " fill="#AE9CE7" transform="translate(187,155)"/>
<path d="M0 0 C0.33 0.66 0.66 1.32 1 2 C3.02463255 2.65213292 3.02463255 2.65213292 5 3 C5 3.66 5 4.32 5 5 C4.484375 5.45375 3.96875 5.9075 3.4375 6.375 C2.7259375 7.179375 2.7259375 7.179375 2 8 C2.22757731 10.16299211 2.22757731 10.16299211 3 12 C4.32 12 5.64 12 7 12 C7.33 13.32 7.66 14.64 8 16 C4.61447304 14.54905987 2.31867051 12.8783496 0 10 C-0.99118023 6.34025761 -1.24620265 3.60014098 0 0 Z " fill="#B097EF" transform="translate(114,96)"/>
<path d="M0 0 C3.0625 2 3.0625 2 5 4 C4.67 4.66 4.34 5.32 4 6 C3.29875 5.34 2.5975 4.68 1.875 4 C-1.54695128 1.61951215 -2.91739029 1.33345148 -7 2 C-9.0180755 3.30581356 -11.02053408 4.63636792 -13 6 C-13.99 5.67 -14.98 5.34 -16 5 C-10.81845732 0.59017644 -6.87893865 -1.4529347 0 0 Z " fill="#AB9BDF" transform="translate(366,90)"/>
<path d="M0 0 C8.58 0 17.16 0 26 0 C26 0.33 26 0.66 26 1 C24.72125 1.06058594 23.4425 1.12117188 22.125 1.18359375 C20.4166589 1.26807216 18.70832599 1.35271641 17 1.4375 C16.16082031 1.47681641 15.32164062 1.51613281 14.45703125 1.55664062 C9.25986542 1.81851332 4.15542847 2.2899352 -1 3 C-0.67 2.01 -0.34 1.02 0 0 Z " fill="#A591DC" transform="translate(186,125)"/>
<path d="M0 0 C2.5625 1.9375 2.5625 1.9375 4 4 C4 4.66 4 5.32 4 6 C3.01 6 2.02 6 1 6 C0.67 5.01 0.34 4.02 0 3 C-2.36595143 1.81702429 -3.80776319 1.89863689 -6.4375 1.9375 C-7.21996094 1.94652344 -8.00242187 1.95554688 -8.80859375 1.96484375 C-9.89333984 1.98224609 -9.89333984 1.98224609 -11 2 C-11.99 2 -12.98 2 -14 2 C-9.46266232 -1.65914329 -5.40347343 -1.51216607 0 0 Z " fill="#AC9CE3" transform="translate(371,198)"/>
<path d="M0 0 C0.33 0.99 0.66 1.98 1 3 C-2.14594657 7.671254 -4.3616163 9.68874798 -10 11 C-6.79239749 7.19364503 -3.59253891 3.45436433 0 0 Z " fill="#AB97E6" transform="translate(212,130)"/>
<path d="M0 0 C5.59541438 2.6597037 10.9238875 5.57874688 13.5 11.375 C13.665 12.24125 13.83 13.1075 14 14 C9.10565787 9.90473413 4.29279666 5.73642915 0 1 C0 0.67 0 0.34 0 0 Z " fill="#AA96DC" transform="translate(297,213)"/>
<path d="M0 0 C1.32 0.33 2.64 0.66 4 1 C2.3790787 2.17232685 0.75313167 3.3377077 -0.875 4.5 C-1.77992188 5.1496875 -2.68484375 5.799375 -3.6171875 6.46875 C-6 8 -6 8 -8 8 C-7.75 6.125 -7.75 6.125 -7 4 C-4.41847698 2.27898465 -3.15081975 2 0 2 C0 1.34 0 0.68 0 0 Z " fill="#AB9AE3" transform="translate(305,279)"/>
<path d="M0 0 C0.5775 0.226875 1.155 0.45375 1.75 0.6875 C0.25260417 1.89192708 -1.24479167 3.09635417 -2.7421875 4.30078125 C-4.50292107 5.81020545 -4.50292107 5.81020545 -6.25 8.6875 C-6.91 8.6875 -7.57 8.6875 -8.25 8.6875 C-7.38540574 5.44527151 -6.73278055 3.18637323 -4.375 0.75 C-2.25 -0.3125 -2.25 -0.3125 0 0 Z " fill="#A995E2" transform="translate(337.25,250.3125)"/>
<path d="M0 0 C0.33 0 0.66 0 1 0 C0.88660796 2.64680904 0.75987127 5.29177518 0.625 7.9375 C0.5940625 8.69224609 0.563125 9.44699219 0.53125 10.22460938 C0.4273685 12.15507395 0.22104386 14.07942081 0 16 C-0.66 16.33 -1.32 16.66 -2 17 C-3.27947184 10.34058028 -2.81115003 6.18453008 0 0 Z " fill="#AC9AE3" transform="translate(173,169)"/>
<path d="M0 0 C0.99 0.33 1.98 0.66 3 1 C0.03 3.97 -2.94 6.94 -6 10 C-6.33 9.01 -6.66 8.02 -7 7 C-5.6875 4.8125 -5.6875 4.8125 -4 3 C-3.34 3 -2.68 3 -2 3 C-2 2.34 -2 1.68 -2 1 C-1.34 0.67 -0.68 0.34 0 0 Z " fill="#AA98E2" transform="translate(321,264)"/>
<path d="M0 0 C1.32 0 2.64 0 4 0 C4.2475 0.61875 4.495 1.2375 4.75 1.875 C6.20628639 4.35068687 7.37812506 4.95125002 10 6 C10 6.99 10 7.98 10 9 C10.66 9.33 11.32 9.66 12 10 C9 10 9 10 6.73828125 8.06640625 C5.93777344 7.24011719 5.13726562 6.41382813 4.3125 5.5625 C3.50425781 4.73878906 2.69601562 3.91507813 1.86328125 3.06640625 C0 1 0 1 0 0 Z " fill="#AB97DF" transform="translate(283,199)"/>
<path d="M0 0 C0.99 0.33 1.98 0.66 3 1 C-0.74114033 4.2531655 -5.31315138 6.44374911 -10 8 C-10.66 7.67 -11.32 7.34 -12 7 C-9 5 -9 5 -6 5 C-6 4.34 -6 3.68 -6 3 C-4.68 3 -3.36 3 -2 3 C-2 2.34 -2 1.68 -2 1 C-1.34 0.67 -0.68 0.34 0 0 Z " fill="#AB9AE3" transform="translate(242,198)"/>
<path d="M0 0 C1.98 0 3.96 0 6 0 C3.69846709 2.30153291 2.15124095 2.7577028 -0.9375 3.6875 C-1.81277344 3.95949219 -2.68804687 4.23148437 -3.58984375 4.51171875 C-6 5 -6 5 -9 4 C-8.67 3.34 -8.34 2.68 -8 2 C-5.36 2 -2.72 2 0 2 C0 1.34 0 0.68 0 0 Z " fill="#AD9BE4" transform="translate(282,291)"/>
<path d="M0 0 C6.02423313 0.86060473 11.39045534 2.69018749 17 5 C12.92320841 6.6852084 10.16924407 5.16939007 6.25 3.5625 C5.07953125 3.08941406 3.9090625 2.61632812 2.703125 2.12890625 C1.81109375 1.75636719 0.9190625 1.38382812 0 1 C0 0.67 0 0.34 0 0 Z " fill="#AC9BE1" transform="translate(193,289)"/>
<path d="M0 0 C0.33 0 0.66 0 1 0 C1 3.63 1 7.26 1 11 C1.99 11.33 2.98 11.66 4 12 C0.25 14 0.25 14 -2 14 C-1.34 9.38 -0.68 4.76 0 0 Z " fill="#AB96E5" transform="translate(313,232)"/>
<path d="M0 0 C4.60853797 0.72008406 8.67237409 2.31295939 13 4 C13 4.66 13 5.32 13 6 C7.71862571 5.48474397 4.42778844 3.74522883 0 1 C0 0.67 0 0.34 0 0 Z " fill="#AC99E2" transform="translate(186,200)"/>
<path d="M0 0 C0 0.99 0 1.98 0 3 C-1.828125 4.7890625 -1.828125 4.7890625 -4.25 6.625 C-5.03890625 7.23601562 -5.8278125 7.84703125 -6.640625 8.4765625 C-8.84539138 9.90016993 -10.43854132 10.56525701 -13 11 C-9.0299782 6.78185183 -4.69159716 3.38772897 0 0 Z " fill="#AD99E1" transform="translate(334,106)"/>
<path d="M0 0 C1.14926266 0.95421808 2.29430541 1.91352045 3.4375 2.875 C4.07558594 3.40867188 4.71367187 3.94234375 5.37109375 4.4921875 C7 6 7 6 8 8 C7.01 8 6.02 8 5 8 C4.67 7.34 4.34 6.68 4 6 C0.97065509 5.34227572 0.97065509 5.34227572 -2 5 C-1.34 3.35 -0.68 1.7 0 0 Z " fill="#AF9CEB" transform="translate(315,200)"/>
<path d="M0 0 C-2.31 2.31 -4.62 4.62 -7 7 C-8 5 -8 5 -7.1875 2.4375 C-5.21631517 -1.60861623 -4.42116724 -1.10529181 0 0 Z " fill="#AE9AE5" transform="translate(259,187)"/>
<path d="M0 0 C7.48291572 6.15034169 7.48291572 6.15034169 10 10 C9.01 10 8.02 10 7 10 C7 9.34 7 8.68 7 8 C6.401875 7.731875 5.80375 7.46375 5.1875 7.1875 C2.98180967 5.99012525 1.56416813 4.95521016 0 3 C0 2.01 0 1.02 0 0 Z " fill="#AF9FE9" transform="translate(297,182)"/>
<path d="M0 0 C0.99 0.33 1.98 0.66 3 1 C3.33 1.99 3.66 2.98 4 4 C5.49985609 5.66710346 5.49985609 5.66710346 7 7 C3.00095031 7 1.19799578 5.27413033 -2 3 C-1.34 2.01 -0.68 1.02 0 0 Z " fill="#AC99E5" transform="translate(179,277)"/>
<path d="M0 0 C0.33 0 0.66 0 1 0 C1.0825 0.9075 1.165 1.815 1.25 2.75 C2.09248732 6.40077839 3.17881618 7.63384583 6 10 C5.67 10.99 5.34 11.98 5 13 C0.07692308 7.95384615 0.07692308 7.95384615 -0.3125 3.125 C-0.209375 2.09375 -0.10625 1.0625 0 0 Z " fill="#A693DF" transform="translate(110,205)"/>
<path d="M0 0 C1.32 0 2.64 0 4 0 C4.33 0.99 4.66 1.98 5 3 C7.01508358 3.73323796 7.01508358 3.73323796 9 4 C8.34 5.32 7.68 6.64 7 8 C5.83035398 6.8572081 4.66435444 5.71068285 3.5 4.5625 C2.8503125 3.92441406 2.200625 3.28632813 1.53125 2.62890625 C0 1 0 1 0 0 Z " fill="#AB96E2" transform="translate(273,189)"/>
<path d="M0 0 C1.98 1.65 3.96 3.3 6 5 C3.3333581 6.33332095 1.83319697 5.67102033 -1 5 C-1.33 4.01 -1.66 3.02 -2 2 C-1.34 2 -0.68 2 0 2 C0 1.34 0 0.68 0 0 Z " fill="#AF9BEE" transform="translate(291,176)"/>
<path d="M0 0 C4.05952843 0.45105871 6.40226443 0.75283053 9 4 C9.66 4.66 10.32 5.32 11 6 C10.01 6.495 10.01 6.495 9 7 C7.4972763 6.02501855 5.99788037 5.04490611 4.5 4.0625 C3.6646875 3.51722656 2.829375 2.97195312 1.96875 2.41015625 C1.3190625 1.94480469 0.669375 1.47945312 0 1 C0 0.67 0 0.34 0 0 Z " fill="#AB99E4" transform="translate(142,127)"/>
<path d="M0 0 C1.485 0.99 1.485 0.99 3 2 C3 2.99 3 3.98 3 5 C4.32 5 5.64 5 7 5 C7.33 6.32 7.66 7.64 8 9 C4.63704165 7.55873214 2.37072898 5.79407345 0 3 C0 2.01 0 1.02 0 0 Z " fill="#A998E2" transform="translate(114,103)"/>
<path d="M0 0 C3 0 3 0 6 1 C3.03 3.475 3.03 3.475 0 6 C-1.125 2.25 -1.125 2.25 0 0 Z " fill="#A795E4" transform="translate(236,132)"/>
<path d="M0 0 C0.33 0.99 0.66 1.98 1 3 C-0.8125 4.5625 -0.8125 4.5625 -3 6 C-3.99 5.67 -4.98 5.34 -6 5 C-6 4.34 -6 3.68 -6 3 C-5.38125 2.87625 -4.7625 2.7525 -4.125 2.625 C-1.80879168 2.12802644 -1.80879168 2.12802644 0 0 Z " fill="#A793E7" transform="translate(308,249)"/>
<path d="M0 0 C0.66 0.33 1.32 0.66 2 1 C-0.31 3.31 -2.62 5.62 -5 8 C-5 5 -5 5 -2.5 2.3125 C-1.675 1.549375 -0.85 0.78625 0 0 Z " fill="#9E92D7" transform="translate(234,138)"/>
<path d="M0 0 C1.32 0.33 2.64 0.66 4 1 C2.35 2.65 0.7 4.3 -1 6 C-1.66 5.67 -2.32 5.34 -3 5 C-2.67 4.01 -2.34 3.02 -2 2 C-1.34 2 -0.68 2 0 2 C0 1.34 0 0.68 0 0 Z " fill="#AB98DF" transform="translate(367,106)"/>
<path d="M0 0 C3.26954202 0.56371414 4.82575883 1.49962266 7 4 C6.34 4.66 5.68 5.32 5 6 C3.35 4.02 1.7 2.04 0 0 Z " fill="#A893E3" transform="translate(156,258)"/>
<path d="M0 0 C3.26954202 0.56371414 4.82575883 1.49962266 7 4 C6.34 4.66 5.68 5.32 5 6 C3.35 4.02 1.7 2.04 0 0 Z " fill="#A793E1" transform="translate(148,250)"/>
<path d="M0 0 C3.26954202 0.56371414 4.82575883 1.49962266 7 4 C6.34 4.66 5.68 5.32 5 6 C3.35 4.02 1.7 2.04 0 0 Z " fill="#A793E3" transform="translate(140,242)"/>
<path d="M0 0 C3.26954202 0.56371414 4.82575883 1.49962266 7 4 C6.34 4.66 5.68 5.32 5 6 C3.35 4.02 1.7 2.04 0 0 Z " fill="#A794E1" transform="translate(132,234)"/>
</svg>
