<?xml version="1.0" encoding="UTF-8"?>
<svg version="1.1" xmlns="http://www.w3.org/2000/svg" width="1920" height="1080">
<path d="M0 0 C633.6 0 1267.2 0 1920 0 C1920 356.4 1920 712.8 1920 1080 C1286.4 1080 652.8 1080 0 1080 C0 723.6 0 367.2 0 0 Z " fill="#1F37A2" transform="translate(0,0)"/>
<path d="M0 0 C2.140625 1.16162109 2.140625 1.16162109 4.25 2.7734375 C5.0234375 3.3509375 5.796875 3.9284375 6.59375 4.5234375 C7.3878125 5.13445313 8.181875 5.74546875 9 6.375 C10.57967517 7.57514282 12.16290879 8.77061909 13.75 9.9609375 C14.79414062 10.76217041 14.79414062 10.76217041 15.859375 11.57958984 C18.18442555 13.12237544 20.34120461 14.15502419 23 15 C25.38766609 14.20451334 25.38766609 14.20451334 27.5625 12.6875 C32.81013525 9.36793871 36.56620188 8.87330652 42.79711914 8.82299805 C43.47253754 8.81642685 44.14795593 8.80985565 44.84384155 8.80308533 C47.07428109 8.78341395 49.30465329 8.77169995 51.53515625 8.76171875 C52.30107023 8.75764322 53.06698421 8.7535677 53.85610771 8.74936867 C57.91472984 8.72852832 61.97331842 8.71422111 66.03198242 8.70483398 C70.19891549 8.69380875 74.36530879 8.65944867 78.53205204 8.61966228 C81.75710455 8.59335354 84.98203159 8.58512933 88.20718193 8.58155251 C89.74159809 8.57671868 91.27600987 8.56519752 92.8103199 8.54651451 C103.10586031 8.42899797 112.17130353 9.11420235 121 15 C125.02696201 14.70741158 127.30625479 13.31017302 130.3984375 10.8046875 C131.20796875 10.17175781 132.0175 9.53882813 132.8515625 8.88671875 C134.53290744 7.54632766 136.20743789 6.19734353 137.875 4.83984375 C144.11038152 0 144.11038152 0 148.9765625 0 C153.69985359 1.56222548 153.69985359 1.56222548 155 4 C154.88423273 8.27835571 154.6238258 10.3485169 151.62109375 13.484375 C150.57050781 14.23203125 149.51992187 14.9796875 148.4375 15.75 C147.86829834 16.15903564 147.29909668 16.56807129 146.71264648 16.98950195 C145.4786427 17.87079089 144.23784771 18.74263075 142.99121094 19.60595703 C140.89449373 21.07386474 138.84213457 22.59284235 136.7890625 24.12109375 C135.38147353 25.14497077 133.97264041 26.16713981 132.5625 27.1875 C131.90113037 27.6815332 131.23976074 28.17556641 130.55834961 28.68457031 C129.60327515 29.35697754 129.60327515 29.35697754 128.62890625 30.04296875 C128.07275635 30.44539795 127.51660645 30.84782715 126.94360352 31.26245117 C123.98431349 32.38542758 122.02314582 31.81747001 119 31 C117.14156957 29.89383956 115.32450243 28.71620101 113.546875 27.484375 C106.45282063 23.20340457 100.3822454 23.0145265 92.25 23.25 C90.98800781 23.2396875 89.72601563 23.229375 88.42578125 23.21875 C77.05313535 23.36195226 71.1051089 27.40095679 63.3125 35.32421875 C62.72452637 35.91169388 62.13655273 36.49916901 61.53076172 37.10444641 C60.3038375 38.33369094 59.08055443 39.56657992 57.86083984 40.80297852 C55.98574286 42.70193858 54.09738658 44.58694376 52.20703125 46.47070312 C51.01222245 47.67108085 49.81818312 48.87222508 48.625 50.07421875 C48.05950439 50.63880295 47.49400879 51.20338715 46.91137695 51.78507996 C43.951907 54.40940046 43.951907 54.40940046 43 58 C46.44369518 60.08962086 49.2534154 60.3276471 53.25 60.375 C54.86648437 60.41753906 54.86648437 60.41753906 56.515625 60.4609375 C65.7245539 59.24271596 70.87295106 53.5015902 76.79882812 46.86914062 C79.5231448 43.9670845 81.64254732 42.1607904 85.30859375 40.51171875 C90.90893217 41.25250426 93.65955145 44.57676329 97.53186035 48.51403809 C99.08735363 50.08841405 100.67191939 51.62837483 102.26464844 53.16503906 C105.22476103 56.02881445 108.15322045 58.92253987 111.0703125 61.83007812 C112.88620975 63.63614909 114.71252324 65.43126282 116.5390625 67.2265625 C117.71159266 68.39257071 118.88349064 69.55921506 120.0546875 70.7265625 C120.59326385 71.25279205 121.13184021 71.77902161 121.68673706 72.32119751 C125.25642725 75.91197704 127.64835468 79.51177737 130 84 C130.94875 83.195625 131.8975 82.39125 132.875 81.5625 C133.51179687 81.02496094 134.14859375 80.48742187 134.8046875 79.93359375 C136.39334192 78.53433408 137.93514776 77.08128455 139.4453125 75.59765625 C146.87708466 68.40451898 146.87708466 68.40451898 150.9375 68.25 C154 69 154 69 155.9375 70.125 C157.63262266 73.11639292 157.64407189 74.58641899 157 78 C155.67962646 79.79319763 155.67962646 79.79319763 153.94433594 81.70874023 C153.30765991 82.41247772 152.67098389 83.11621521 152.01501465 83.84127808 C148.81525044 87.2692438 145.56326809 90.63882168 142.265625 93.97265625 C141.54695251 94.69940048 140.82828003 95.42614471 140.08782959 96.1749115 C138.57662224 97.69985058 137.06392671 99.2233162 135.54980469 100.74536133 C134.01925372 102.28744829 132.49318336 103.83399557 130.97167969 105.38500977 C116.38687182 120.25174859 103.03355921 132.00665996 81.1796875 132.23828125 C80.4397757 132.246353 79.69986389 132.25442474 78.93753052 132.26274109 C77.37602022 132.27651133 75.81448071 132.28726474 74.25292969 132.29516602 C72.6782937 132.30664437 71.10369535 132.3270302 69.52929688 132.35668945 C49.21999283 132.73823494 35.74028174 126.04543043 21.171875 112.08203125 C20.11390454 111.05538654 19.05660149 110.02805357 18 109 C17.23333008 108.26402588 17.23333008 108.26402588 16.45117188 107.51318359 C10.29009135 101.59509223 10.29009135 101.59509223 8 99 C8 98.34 8 97.68 8 97 C6.515 96.505 6.515 96.505 5 96 C5 95.34 5 94.68 5 94 C3.515 93.505 3.515 93.505 2 93 C0.421875 91.3984375 0.421875 91.3984375 -1.25 89.375 C-3.67564768 86.46733259 -6.16272709 83.93997471 -9 81.4375 C-11.80779869 78.69265644 -11.987621 78.37755935 -12.125 74.1875 C-11 71 -11 71 -8 69 C-5.3125 68.4375 -5.3125 68.4375 -2 69 C3.8155459 73.22590623 8.7624643 78.70645265 13.7265625 83.875 C15.18526079 85.37070618 16.64492717 86.86546872 18.10546875 88.359375 C20.36519963 90.67438832 22.6191184 92.99385977 24.85693359 95.33007812 C40.71727465 111.92825198 40.71727465 111.92825198 62.3046875 118.02734375 C62.86414063 118.01832031 63.42359375 118.00929688 64 118 C63.175 117.13375 62.35 116.2675 61.5 115.375 C59.47676468 112.94366892 59.01074891 112.06852433 58.5 108.8125 C59 106 59 106 60.0625 104.125 C63.26473478 102.26563787 65.36286103 102.45442915 69 103 C73.35495708 105.630317 76.36630806 109.44389538 79.5 113.375 C81.96420427 116.23895296 82.54562342 116.90744181 86.375 117.6875 C90.75791812 116.85625691 94.83614822 115.58622925 99 114 C97.65593552 110.99060684 96.13807855 109.00203067 93.8125 106.6875 C91.22955367 103.771473 91 103.33108527 91 99.1875 C92 96 92 96 94 94 C97.47309756 93.45520038 99.90887183 93.30544653 102.9453125 95.23828125 C105.81104427 97.65436891 107.90845997 99.86268996 110 103 C112.66404576 101.98949988 113.97707828 101.02766415 115.8125 98.8125 C117.45988796 94.91079168 117.23912551 93.06157806 116 89 C110.78593131 81.82153735 103.85334454 75.73693755 97.5625 69.5 C96.5342702 68.47679861 95.50627374 67.45336267 94.47851562 66.4296875 C91.98835662 63.95042001 89.49507167 61.47432462 87 59 C83.70068424 60.55569138 81.67535711 62.18953306 79.1875 64.875 C73.36013714 70.8429115 66.94002523 74.52795314 58.484375 75.3359375 C46.58904637 75.46036562 37.87688805 73.15890446 29 65 C26.54206175 61.31309262 26.25826694 59.08099744 26.40234375 54.71484375 C27.47643165 49.835817 30.73811438 47.04006645 34.26416016 43.67285156 C36.41149799 41.60343401 38.50716736 39.48629778 40.60546875 37.3671875 C45.04704607 32.88778332 49.5159787 28.43688215 54 24 C51.31139069 23.89112493 48.62726842 23.81229406 45.9375 23.75 C45.18533203 23.71648437 44.43316406 23.68296875 43.65820312 23.6484375 C36.72788298 23.52843196 32.64478286 25.55357586 27.5 30.3125 C25 32 25 32 21.828125 31.953125 C16.97920644 30.74584324 14.08959105 28.53220758 10.25 25.4375 C8.84860687 24.33863035 7.44625829 23.24097811 6.04296875 22.14453125 C5.36024902 21.60650879 4.6775293 21.06848633 3.97412109 20.51416016 C2.20169821 19.15470347 0.40616513 17.87928523 -1.44921875 16.63671875 C-2.43535156 15.97285156 -3.42148438 15.30898438 -4.4375 14.625 C-5.30246094 14.06039062 -6.16742188 13.49578125 -7.05859375 12.9140625 C-9.64315973 10.36589886 -9.90049926 8.58202663 -10 5 C-6.97322042 0.90494527 -5.06658415 -0.59983917 0 0 Z " fill="#AE94F9" transform="translate(71,45)"/>
</svg>
